<?xml version="1.0" standalone="no"?>
<!DOCTYPE svg PUBLIC "-//W3C//DTD SVG 20010904//EN"
 "http://www.w3.org/TR/2001/REC-SVG-20010904/DTD/svg10.dtd">
<svg version="1.0" xmlns="http://www.w3.org/2000/svg"
 width="652.000000pt" height="446.000000pt" viewBox="0 0 652.000000 446.000000"
 preserveAspectRatio="xMidYMid meet">

<g transform="translate(0.000000,446.000000) scale(0.100000,-0.100000)"
fill="#000000" stroke="none">
<path d="M1282 3708 c-9 -9 -12 -134 -12 -529 0 -462 -2 -518 -16 -523 -9 -3
-65 -6 -126 -6 -83 0 -109 -3 -106 -12 4 -10 437 -14 2111 -16 1869 -2 2107 0
2107 13 0 13 -21 15 -129 15 -72 0 -132 3 -135 8 -2 4 4 41 14 82 37 154 40
195 40 559 0 305 -2 367 -15 391 l-16 30 -248 0 c-246 0 -248 0 -269 -23 -21
-23 -22 -30 -22 -274 0 -288 -14 -494 -40 -573 -10 -30 -20 -66 -23 -80 -4
-14 -20 -46 -36 -72 l-31 -48 -175 0 -175 0 0 508 c0 388 -3 513 -13 532 l-13
25 -260 3 c-210 2 -263 0 -273 -11 -8 -10 -12 -166 -13 -533 l-3 -519 -235 -3
c-129 -1 -245 0 -257 3 -23 5 -23 6 -23 210 0 213 -5 250 -48 370 -55 150
-170 286 -327 386 -41 27 -129 62 -200 82 -61 16 -1017 21 -1033 5z m892 -527
c25 -13 62 -41 81 -63 57 -67 66 -111 63 -299 l-3 -164 -235 0 -235 0 -3 268
-2 268 22 9 c13 6 77 9 144 7 101 -3 129 -8 168 -26z"/>
<path d="M1482 2193 l3 -138 25 0 c23 0 25 4 28 48 4 61 25 58 32 -4 4 -39 8
-44 30 -44 31 0 38 31 19 87 -9 30 -10 41 -1 50 7 7 12 31 12 53 0 59 -30 85
-98 85 l-53 0 3 -137z m86 44 c-5 -62 -28 -60 -28 2 0 41 3 49 16 44 11 -4 14
-17 12 -46z"/>
<path d="M1860 2190 l0 -140 24 0 c23 0 25 4 28 52 3 44 7 54 28 65 33 16 32
37 -3 41 -26 3 -28 6 -25 40 3 34 6 37 36 40 24 2 32 8 32 23 0 17 -7 19 -60
19 l-60 0 0 -140z"/>
<path d="M2212 2193 l3 -138 25 0 25 0 3 138 3 137 -31 0 -31 0 3 -137z"/>
<path d="M2500 2190 l0 -140 49 0 c33 0 56 6 72 19 23 18 24 26 24 125 0 124
-7 135 -92 136 l-53 0 0 -140z m90 -2 c0 -80 -2 -89 -17 -86 -15 3 -18 16 -21
82 -3 90 1 108 23 100 12 -5 15 -24 15 -96z"/>
<path d="M3182 2193 c3 -133 4 -138 25 -141 18 -3 23 3 28 35 4 21 8 45 9 53
3 14 11 -1 37 -67 9 -26 49 -32 49 -8 0 8 -9 37 -20 65 -11 28 -20 59 -20 68
0 10 9 35 20 57 24 46 26 75 6 75 -22 0 -46 -29 -53 -61 -7 -38 -23 -37 -23 0
0 45 -10 61 -36 61 l-25 0 3 -137z"/>
<path d="M3579 2311 c-22 -17 -24 -29 -27 -116 -5 -120 1 -147 31 -143 15 2
23 12 27 33 7 39 33 39 40 0 6 -32 36 -47 51 -23 15 23 11 196 -6 227 -23 46
-75 55 -116 22z m71 -91 c0 -53 -2 -60 -20 -60 -18 0 -20 7 -20 60 0 53 2 60
20 60 18 0 20 -7 20 -60z"/>
<path d="M3962 2314 c-20 -14 -22 -23 -22 -124 0 -101 2 -110 22 -124 50 -35
118 -4 118 54 0 25 -4 30 -24 30 -18 0 -25 -6 -28 -22 -2 -13 -11 -24 -20 -26
-16 -3 -18 6 -18 87 0 84 1 91 20 91 13 0 20 -7 20 -20 0 -15 7 -20 25 -20 20
0 25 5 25 25 0 54 -69 83 -118 49z"/>
<path d="M4332 2314 c-20 -14 -22 -23 -22 -124 0 -101 2 -110 22 -124 50 -35
118 -4 118 54 0 25 -4 30 -25 30 -20 0 -25 -5 -25 -26 0 -19 -4 -25 -17 -22
-16 3 -18 15 -18 88 0 70 3 85 16 88 10 2 19 -5 22 -18 8 -31 47 -27 47 5 0
54 -69 83 -118 49z"/>
<path d="M4707 2318 c-27 -21 -37 -64 -37 -157 0 -66 4 -92 15 -101 21 -18 43
-5 47 27 4 38 31 37 38 -2 4 -24 10 -30 30 -30 25 0 25 0 28 113 3 108 2 113
-22 137 -27 27 -72 33 -99 13z m63 -98 c0 -53 -2 -60 -20 -60 -17 0 -20 7 -20
53 0 56 4 67 27 67 9 0 13 -17 13 -60z"/>
<path d="M1027 1773 c-19 -18 3 -23 116 -25 l122 -3 3 -512 2 -513 28 -7 c15
-5 134 -8 265 -8 l239 0 19 24 c18 22 19 46 19 522 l0 499 163 0 c185 0 175 4
221 -88 59 -117 67 -176 73 -550 l6 -344 24 -29 25 -29 237 0 c198 0 240 3
259 16 l22 15 0 352 c-1 360 -3 388 -48 605 -7 31 -6 45 2 48 6 2 139 3 296 2
l285 -3 3 -506 c2 -456 4 -508 19 -520 13 -11 69 -14 264 -14 225 0 250 2 266
18 17 16 18 53 21 523 l3 504 197 -2 197 -3 27 -50 c65 -119 81 -232 85 -626
l4 -316 25 -24 c25 -23 31 -24 221 -27 225 -4 275 1 303 31 19 20 20 36 20
386 0 357 -4 414 -36 542 -24 94 -30 89 101 89 96 0 115 3 115 15 0 13 -240
15 -2103 15 -1157 0 -2107 -3 -2110 -7z"/>
</g>
</svg>
